<svg width="122" height="125" viewBox="0 0 122 125" fill="none" xmlns="http://www.w3.org/2000/svg">
<path d="M60.9322 10.4167C32.9034 10.4167 10.1554 33.7501 10.1554 62.5001C10.1554 91.2501 32.9034 114.583 60.9322 114.583C88.961 114.583 111.709 91.2501 111.709 62.5001C111.709 33.7501 88.961 10.4167 60.9322 10.4167ZM60.9322 26.0417C69.3611 26.0417 76.1652 33.0209 76.1652 41.6667C76.1652 50.3126 69.3611 57.2917 60.9322 57.2917C52.5032 57.2917 45.6991 50.3126 45.6991 41.6667C45.6991 33.0209 52.5032 26.0417 60.9322 26.0417ZM60.9322 100C48.238 100 37.0163 93.3334 30.4661 83.2292C30.6184 72.8647 50.7768 67.1876 60.9322 67.1876C71.0368 67.1876 91.2459 72.8647 91.3982 83.2292C84.848 93.3334 73.6264 100 60.9322 100Z" fill="black"/>
</svg>
