<svg width="1440" height="1024" viewBox="0 0 1440 1024" fill="none" xmlns="http://www.w3.org/2000/svg">
<rect width="1440" height="1024" fill="#E0E0E0"/>
<path d="M696.309 548H676.968L676.138 534.719C673.205 539.589 669.303 543.296 664.434 545.842C659.619 548.387 653.975 549.66 647.5 549.66C636.875 549.66 628.547 546.395 622.515 539.865C616.483 533.335 613.467 524.37 613.467 512.971V464.992H637.29V507.492C637.29 513.967 638.812 519.058 641.855 522.766C644.954 526.418 649.16 528.244 654.473 528.244C660.007 528.244 664.378 526.335 667.588 522.517C670.853 518.643 672.485 513.413 672.485 506.828V464.992H696.309V548ZM799.404 548H775.581V504.836C775.581 498.527 774.087 493.602 771.099 490.061C768.166 486.519 764.098 484.748 758.896 484.748C755.244 484.748 752.007 485.633 749.185 487.404C746.418 489.12 744.259 491.582 742.71 494.792C741.16 497.946 740.386 501.737 740.386 506.164V548H716.562V464.992H735.82L736.65 478.273C739.639 473.404 743.623 469.696 748.604 467.15C753.584 464.605 759.339 463.332 765.869 463.332C776.273 463.332 784.463 466.542 790.439 472.961C796.416 479.325 799.404 488.068 799.404 499.191V548ZM903.496 548H882.578L881.333 536.711C877.791 540.695 873.53 543.85 868.55 546.174C863.625 548.498 858.229 549.66 852.363 549.66C844.782 549.66 838.003 547.806 832.026 544.099C826.105 540.336 821.429 535.189 817.998 528.659C814.567 522.129 812.852 514.742 812.852 506.496C812.852 498.195 814.567 490.808 817.998 484.333C821.429 477.803 826.105 472.684 832.026 468.977C838.003 465.214 844.782 463.332 852.363 463.332C857.786 463.332 862.822 464.328 867.471 466.32C872.174 468.257 876.242 470.969 879.673 474.455V423.488H903.496V548ZM858.506 528.327C862.435 528.327 865.977 527.442 869.131 525.671C872.34 523.9 874.886 521.493 876.768 518.449C878.704 515.35 879.673 511.836 879.673 507.907V504.919C879.673 500.99 878.704 497.504 876.768 494.46C874.886 491.416 872.34 489.037 869.131 487.321C865.977 485.55 862.435 484.665 858.506 484.665C854.466 484.665 850.841 485.606 847.632 487.487C844.422 489.369 841.877 491.97 839.995 495.29C838.169 498.555 837.256 502.29 837.256 506.496C837.256 510.646 838.169 514.382 839.995 517.702C841.877 520.967 844.422 523.568 847.632 525.505C850.841 527.386 854.466 528.327 858.506 528.327ZM949.233 548H923.75V423.488H949.233V548ZM1010.33 589.504H984.927L1002.19 547.917L960.273 464.992H987.168L1013.48 520.773L1036.56 464.992H1061.88L1010.33 589.504Z" fill="black"/>
<path d="M437.189 557H413.366V495.242H398.84V473.992H413.366V461.043C413.366 455.066 414.777 449.754 417.6 445.105C420.422 440.402 424.296 436.722 429.221 434.065C434.201 431.354 439.846 429.998 446.154 429.998C450.139 429.998 454.206 430.579 458.356 431.741C462.507 432.848 466.602 434.619 470.642 437.054L461.594 455.564C459.823 454.126 457.941 453.074 455.949 452.41C454.012 451.691 452.076 451.331 450.139 451.331C446.486 451.331 443.415 452.604 440.925 455.149C438.435 457.695 437.189 461.209 437.189 465.691V473.992H462.009V495.242H437.189V557Z" fill="black"/>
<path d="M645.399 618.042L580.946 559.797C580.475 559.372 580.549 558.612 581.093 558.286L583.717 556.535L586.778 553.909L588.336 552.176C588.605 551.877 588.795 551.515 588.887 551.123L589.247 549.591C589.434 548.797 590.332 548.406 591.039 548.811C591.114 548.854 591.184 548.904 591.248 548.962L645.379 597.459L651.064 602.711L652.176 604.046C652.887 604.9 653.438 605.875 653.802 606.924C654.572 609.139 654.471 611.563 653.519 613.705L653.251 614.31L651.619 617.087C651.255 617.705 650.735 618.216 650.111 618.567C648.59 619.423 646.693 619.212 645.399 618.042Z" fill="#A87C4F" stroke="#A87C4F" stroke-width="2"/>
<path d="M646 619.216V619.126C646 618.673 646.419 618.335 646.862 618.431C647.577 618.585 648.032 617.69 647.486 617.204L631 602.5L613 587L597 572L588 564.047L585.081 561.097C584.059 560.065 582.71 559.419 581.264 559.27L579.614 559.1C578.992 559.036 578.37 559.225 577.889 559.625C576.863 560.478 576.762 562.017 577.669 562.996L578.422 563.81C578.568 563.968 578.729 564.111 578.901 564.238L582.824 567.119L587.226 570.41L592.509 575.457L598.233 580.504L604.616 586.428L605.424 587.295C608.695 590.807 612.254 594.04 616.063 596.96L617.544 598.303C618.169 598.869 618.852 599.368 619.581 599.792C620.605 600.388 621.536 601.131 622.344 601.998L623.987 603.763L624.172 603.947C626.101 605.869 628.173 607.641 630.371 609.248L633.673 612.32L636.314 614.734L638.323 616.12C638.89 616.512 639.422 616.954 639.911 617.441L640.163 617.692C640.531 618.059 640.935 618.39 641.369 618.678L642.848 619.661C643.181 619.882 643.572 620 643.971 620H645.216C645.649 620 646 619.649 646 619.216Z" fill="#8B5F3C" stroke="#8B5F3C" stroke-width="2"/>
<path d="M581.71 548.785L582.026 548.551C582.387 548.285 582.6 547.863 582.6 547.414C582.6 546.633 583.233 546 584.014 546H585.952C586.49 546 587 546.237 587.348 546.647C587.754 547.127 587.885 547.782 587.695 548.381L587.4 549.309L586.8 550.727L586 552.618L585.02 554.356C584.876 554.611 584.8 554.899 584.8 555.192C584.8 555.794 584.482 556.352 583.964 556.658L582.8 557.345L581.297 558.234C581.232 558.272 581.164 558.302 581.093 558.325C580.273 558.59 579.521 557.768 579.857 556.975L580.098 556.405C580.165 556.246 580.2 556.075 580.2 555.902V553.8V552.623C580.2 552.158 580.339 551.703 580.6 551.318L580.699 551.171C580.895 550.882 581 550.541 581 550.191C581 549.636 581.263 549.115 581.71 548.785Z" fill="#FFCA08" stroke="#FFCA08" stroke-width="2"/>
<path d="M578.043 545.318L578.065 545.343C578.314 545.628 578.673 545.791 579.051 545.791H579.231C579.942 545.791 580.578 546.232 580.828 546.898L580.883 547.047C580.96 547.253 581 547.471 581 547.691C581 548.193 580.794 548.674 580.431 549.02L579.826 549.597L579.239 550.269C578.735 550.846 578.457 551.587 578.457 552.353V552.731V554.746V556.402C578.457 557.056 578.171 557.678 577.674 558.104L577.38 558.374C576.984 558.736 576.385 558.763 575.958 558.437C575.683 558.228 575.522 557.901 575.522 557.556V556.09V554.121C575.522 553.225 575.197 552.359 574.607 551.685C574.306 551.341 574.072 550.944 573.916 550.515L573.379 549.041C573.243 548.667 573.064 548.309 572.845 547.976L572.304 547.15C572.106 546.848 572 546.494 572 546.133C572 545.384 572.451 544.708 573.142 544.42L573.682 544.195C573.993 544.066 574.325 544 574.661 544H574.783C575.262 544 575.728 544.157 576.109 544.448L576.364 544.642C576.579 544.807 576.842 544.896 577.113 544.896C577.469 544.896 577.808 545.05 578.043 545.318Z" fill="#F9A714" stroke="#F9A714" stroke-width="4"/>
<path d="M573.157 549.969L571.903 548.801C570.304 547.312 570.228 544.805 571.733 543.222C572.975 541.916 574.946 541.623 576.514 542.51L579.116 543.983C580.281 544.642 581.597 544.989 582.937 544.989H584.858C587.57 544.989 590.203 545.897 592.339 547.568L593.008 548.091L595.651 550.751L601.157 556.291L605.342 559.837L610.187 564.712L615.694 569.809L620.759 574.241L627.587 580.224L634.415 586.208L639.481 590.64L644.547 595.515L650.763 600.988C651.317 601.475 651.826 602.011 652.285 602.588L652.752 603.175C654.806 605.758 655.578 609.141 654.855 612.361C654.593 613.531 654.138 614.651 653.51 615.672L653.06 616.402C652.11 617.947 650.679 619.138 648.987 619.793C646.986 620.567 644.763 620.537 642.784 619.707L642.253 619.484C641.149 619.021 640.139 618.359 639.276 617.529L635.737 614.13L630.891 609.92L625.165 605.044L619.218 599.726L613.051 594.85L606.884 589.31L601.157 583.548L595.651 578.673L591.025 574.241L586.18 569.809L582.256 566.848C581.349 566.164 580.501 565.405 579.721 564.581L578.591 563.387C577.207 561.926 576.173 560.169 575.566 558.25L575.314 557.453C575.071 556.683 574.947 555.88 574.947 555.072V554.084C574.947 552.523 574.298 551.033 573.157 549.969Z" stroke="black" stroke-width="4"/>
<path d="M527.587 450.585C558.179 447.066 585.784 468.887 589.264 499.299C592.743 529.71 570.785 557.232 540.193 560.751C509.602 564.27 481.997 542.449 478.517 512.037C475.037 481.626 496.996 454.104 527.587 450.585Z" fill="#FFCA08" stroke="black" stroke-width="4"/>
<path d="M529.068 461.577C553.203 458.801 575.049 476.263 577.836 500.614C580.622 524.964 563.288 546.932 539.153 549.708C515.018 552.484 493.172 535.023 490.385 510.673C487.599 486.322 504.933 464.353 529.068 461.577Z" fill="#00ADF1" stroke="black" stroke-width="4"/>
<path d="M522.458 482.123L522.442 481.986C522.425 481.836 522.393 481.689 522.345 481.545C522.084 480.755 521.4 480.18 520.576 480.059L520.191 480.002C519.649 479.922 519.096 480.001 518.599 480.228L516.746 481.076C516.074 481.383 515.44 481.766 514.855 482.217L514.089 482.808C512.504 484.03 511.131 485.506 510.027 487.176L508.825 488.994L506.725 492.71L504.634 497.66L503.317 502.399L502.634 505.717C502.468 506.523 502.387 507.343 502.394 508.166L502.405 509.649C502.408 510.025 502.477 510.398 502.608 510.751L502.783 511.224C503.153 512.219 504.106 512.877 505.167 512.868C505.889 512.863 506.573 512.548 507.048 512.005L507.069 511.981C507.415 511.584 507.632 511.09 507.692 510.567L507.932 508.431L508.567 505.441L510 499.263L510.249 498.531C511.076 496.094 512.316 493.817 513.914 491.8C514.767 490.723 515.717 489.727 516.751 488.824L518.435 487.353L520.908 485.506L521.274 485.185C522.148 484.421 522.59 483.276 522.458 482.123Z" fill="white" stroke="black" stroke-width="2"/>
<path d="M576 559L578.908 558.329C581.265 557.785 583.448 556.658 585.257 555.052L585.356 554.964C585.928 554.456 586.454 553.898 586.928 553.297V553.297C587.711 552.304 588.344 551.203 588.807 550.027L590 547" stroke="black" stroke-width="4"/>
</svg>
