<svg width="724" height="243" viewBox="0 0 724 243" fill="none" xmlns="http://www.w3.org/2000/svg">
<path d="M338.309 168H318.968L318.138 154.719C315.205 159.589 311.303 163.296 306.434 165.842C301.619 168.387 295.975 169.66 289.5 169.66C278.875 169.66 270.547 166.395 264.515 159.865C258.483 153.335 255.467 144.37 255.467 132.971V84.9922H279.29V127.492C279.29 133.967 280.812 139.058 283.855 142.766C286.954 146.418 291.16 148.244 296.473 148.244C302.007 148.244 306.378 146.335 309.588 142.517C312.853 138.643 314.485 133.413 314.485 126.828V84.9922H338.309V168ZM441.404 168H417.581V124.836C417.581 118.527 416.087 113.602 413.099 110.061C410.166 106.519 406.098 104.748 400.896 104.748C397.244 104.748 394.007 105.633 391.185 107.404C388.418 109.12 386.259 111.582 384.71 114.792C383.16 117.946 382.386 121.737 382.386 126.164V168H358.562V84.9922H377.82L378.65 98.2734C381.639 93.4036 385.623 89.696 390.604 87.1504C395.584 84.6048 401.339 83.332 407.869 83.332C418.273 83.332 426.463 86.5417 432.439 92.9609C438.416 99.3249 441.404 108.068 441.404 119.191V168ZM545.496 168H524.578L523.333 156.711C519.791 160.695 515.53 163.85 510.55 166.174C505.625 168.498 500.229 169.66 494.363 169.66C486.782 169.66 480.003 167.806 474.026 164.099C468.105 160.336 463.429 155.189 459.998 148.659C456.567 142.129 454.852 134.742 454.852 126.496C454.852 118.195 456.567 110.808 459.998 104.333C463.429 97.8031 468.105 92.6842 474.026 88.9766C480.003 85.2135 486.782 83.332 494.363 83.332C499.786 83.332 504.822 84.3281 509.471 86.3203C514.174 88.2572 518.242 90.9688 521.673 94.4551V43.4883H545.496V168ZM500.506 148.327C504.435 148.327 507.977 147.442 511.131 145.671C514.34 143.9 516.886 141.493 518.768 138.449C520.704 135.35 521.673 131.836 521.673 127.907V124.919C521.673 120.99 520.704 117.504 518.768 114.46C516.886 111.416 514.34 109.037 511.131 107.321C507.977 105.55 504.435 104.665 500.506 104.665C496.466 104.665 492.841 105.606 489.632 107.487C486.422 109.369 483.877 111.97 481.995 115.29C480.169 118.555 479.256 122.29 479.256 126.496C479.256 130.646 480.169 134.382 481.995 137.702C483.877 140.967 486.422 143.568 489.632 145.505C492.841 147.386 496.466 148.327 500.506 148.327ZM591.233 168H565.75V43.4883H591.233V168ZM652.327 209.504H626.927L644.192 167.917L602.273 84.9922H629.168L655.481 140.773L678.558 84.9922H703.875L652.327 209.504Z" fill="black"/>
<path d="M79.1895 177H55.3662V115.242H40.8398V93.9922H55.3662V81.043C55.3662 75.0664 56.7773 69.7539 59.5996 65.1055C62.4219 60.4017 66.2956 56.7217 71.2207 54.0654C76.2012 51.3538 81.8457 49.998 88.1543 49.998C92.1387 49.998 96.2061 50.5791 100.356 51.7412C104.507 52.848 108.602 54.6188 112.642 57.0537L103.594 75.5645C101.823 74.1257 99.9414 73.0742 97.9492 72.4102C96.0124 71.6908 94.0755 71.3311 92.1387 71.3311C88.4863 71.3311 85.415 72.6038 82.9248 75.1494C80.4346 77.695 79.1895 81.209 79.1895 85.6914V93.9922H104.009V115.242H79.1895V177Z" fill="black"/>
<path d="M287.399 238.042L222.946 179.797C222.475 179.372 222.549 178.612 223.093 178.286L225.717 176.535L228.778 173.909L230.336 172.176C230.605 171.877 230.795 171.515 230.887 171.123L231.247 169.591C231.434 168.797 232.332 168.406 233.039 168.811C233.114 168.854 233.184 168.904 233.248 168.962L287.379 217.459L293.064 222.711L294.176 224.046C294.887 224.9 295.438 225.875 295.802 226.924C296.572 229.139 296.471 231.563 295.519 233.705L295.251 234.31L293.619 237.087C293.255 237.705 292.735 238.216 292.111 238.567C290.59 239.423 288.693 239.212 287.399 238.042Z" fill="#A87C4F" stroke="#A87C4F" stroke-width="2"/>
<path d="M288 239.216V239.126C288 238.673 288.419 238.335 288.862 238.431C289.577 238.585 290.032 237.69 289.486 237.204L273 222.5L255 207L239 192L230 184.047L227.081 181.097C226.059 180.065 224.71 179.419 223.264 179.27L221.614 179.1C220.992 179.036 220.37 179.225 219.889 179.625C218.863 180.478 218.762 182.017 219.669 182.996L220.422 183.81C220.568 183.968 220.729 184.111 220.901 184.238L224.824 187.119L229.226 190.41L234.509 195.457L240.233 200.504L246.616 206.428L247.424 207.295C250.695 210.807 254.254 214.04 258.063 216.96L259.544 218.303C260.169 218.869 260.852 219.368 261.581 219.792C262.605 220.388 263.536 221.131 264.344 221.998L265.987 223.763L266.172 223.947C268.101 225.869 270.173 227.641 272.371 229.248L275.673 232.32L278.314 234.734L280.323 236.12C280.89 236.512 281.422 236.954 281.911 237.441L282.163 237.692C282.531 238.059 282.935 238.39 283.369 238.678L284.848 239.661C285.181 239.882 285.572 240 285.971 240H287.216C287.649 240 288 239.649 288 239.216Z" fill="#8B5F3C" stroke="#8B5F3C" stroke-width="2"/>
<path d="M223.71 168.785L224.026 168.551C224.387 168.285 224.6 167.863 224.6 167.414C224.6 166.633 225.233 166 226.014 166H227.952C228.49 166 229 166.237 229.348 166.647C229.754 167.127 229.885 167.782 229.695 168.381L229.4 169.309L228.8 170.727L228 172.618L227.02 174.356C226.876 174.611 226.8 174.899 226.8 175.192C226.8 175.794 226.482 176.352 225.964 176.658L224.8 177.345L223.297 178.234C223.232 178.272 223.164 178.302 223.093 178.325C222.273 178.59 221.521 177.768 221.857 176.975L222.098 176.405C222.165 176.246 222.2 176.075 222.2 175.902V173.8V172.623C222.2 172.158 222.339 171.703 222.6 171.318L222.699 171.171C222.895 170.882 223 170.541 223 170.191C223 169.636 223.263 169.115 223.71 168.785Z" fill="#FFCA08" stroke="#FFCA08" stroke-width="2"/>
<path d="M220.043 165.318L220.065 165.343C220.314 165.628 220.673 165.791 221.051 165.791H221.231C221.942 165.791 222.578 166.232 222.828 166.898L222.883 167.047C222.96 167.253 223 167.471 223 167.691C223 168.193 222.794 168.674 222.431 169.02L221.826 169.597L221.239 170.269C220.735 170.846 220.457 171.587 220.457 172.353V172.731V174.746V176.402C220.457 177.056 220.171 177.678 219.674 178.104L219.38 178.374C218.984 178.736 218.385 178.763 217.958 178.437C217.683 178.228 217.522 177.901 217.522 177.556V176.09V174.121C217.522 173.225 217.197 172.359 216.607 171.685C216.306 171.341 216.072 170.944 215.916 170.515L215.379 169.041C215.243 168.667 215.064 168.309 214.845 167.976L214.304 167.15C214.106 166.848 214 166.494 214 166.133C214 165.384 214.451 164.708 215.142 164.42L215.682 164.195C215.993 164.066 216.325 164 216.661 164H216.783C217.262 164 217.728 164.157 218.109 164.448L218.364 164.642C218.579 164.807 218.842 164.896 219.113 164.896C219.469 164.896 219.808 165.05 220.043 165.318Z" fill="#F9A714" stroke="#F9A714" stroke-width="4"/>
<path d="M215.157 169.969L213.903 168.801C212.304 167.312 212.228 164.805 213.733 163.222C214.975 161.916 216.946 161.623 218.514 162.51L221.116 163.983C222.281 164.642 223.597 164.989 224.937 164.989H226.858C229.57 164.989 232.203 165.897 234.339 167.568L235.008 168.091L237.651 170.751L243.157 176.291L247.342 179.837L252.187 184.712L257.694 189.809L262.759 194.241L269.587 200.224L276.415 206.208L281.481 210.64L286.547 215.515L292.763 220.988C293.317 221.475 293.826 222.011 294.285 222.588L294.752 223.175C296.806 225.758 297.578 229.141 296.855 232.361C296.593 233.531 296.138 234.651 295.51 235.672L295.06 236.402C294.11 237.947 292.679 239.138 290.987 239.793C288.986 240.567 286.763 240.537 284.784 239.707L284.253 239.484C283.149 239.021 282.139 238.359 281.276 237.529L277.737 234.13L272.891 229.92L267.165 225.044L261.218 219.726L255.051 214.85L248.884 209.31L243.157 203.548L237.651 198.673L233.025 194.241L228.18 189.809L224.256 186.848C223.349 186.164 222.501 185.405 221.721 184.581L220.591 183.387C219.207 181.926 218.173 180.169 217.566 178.25L217.314 177.453C217.071 176.683 216.947 175.88 216.947 175.072V174.084C216.947 172.523 216.298 171.033 215.157 169.969Z" stroke="black" stroke-width="4"/>
<path d="M169.587 70.5851C200.179 67.0662 227.784 88.8868 231.264 119.299C234.743 149.71 212.785 177.232 182.193 180.751C151.602 184.27 123.997 162.449 120.517 132.037C117.037 101.626 138.996 74.104 169.587 70.5851Z" fill="#FFCA08" stroke="black" stroke-width="4"/>
<path d="M171.068 81.5772C195.203 78.801 217.049 96.263 219.836 120.614C222.622 144.964 205.288 166.932 181.153 169.708C157.018 172.484 135.172 155.023 132.385 130.673C129.599 106.322 146.933 84.3535 171.068 81.5772Z" fill="#00ADF1" stroke="black" stroke-width="4"/>
<path d="M164.458 102.123L164.442 101.986C164.425 101.836 164.393 101.689 164.345 101.545C164.084 100.755 163.4 100.18 162.576 100.059L162.191 100.002C161.649 99.9221 161.096 100.001 160.599 100.228L158.746 101.076C158.074 101.383 157.44 101.766 156.855 102.217L156.089 102.808C154.504 104.03 153.131 105.506 152.027 107.176L150.825 108.994L148.725 112.71L146.634 117.66L145.317 122.399L144.634 125.717C144.468 126.523 144.387 127.343 144.394 128.166L144.405 129.649C144.408 130.025 144.477 130.398 144.608 130.751L144.783 131.224C145.153 132.219 146.106 132.877 147.167 132.868C147.889 132.863 148.573 132.548 149.048 132.005L149.069 131.981C149.415 131.584 149.632 131.09 149.692 130.567L149.932 128.431L150.567 125.441L152 119.263L152.249 118.531C153.076 116.094 154.316 113.817 155.914 111.8C156.767 110.723 157.717 109.727 158.751 108.824L160.435 107.353L162.908 105.506L163.274 105.185C164.148 104.421 164.59 103.276 164.458 102.123Z" fill="white" stroke="black" stroke-width="2"/>
<path d="M218 179L220.908 178.329C223.265 177.785 225.448 176.658 227.257 175.052L227.356 174.964C227.928 174.456 228.454 173.898 228.928 173.297V173.297C229.711 172.304 230.344 171.203 230.807 170.027L232 167" stroke="black" stroke-width="4"/>
</svg>
